
<svg width="16" height="16" viewBox="0 0 16 16" fill="currentColor" xmlns="http://www.w3.org/2000/svg">
<path fill-rule="evenodd" clip-rule="evenodd" d="M10.6668 4.00016V2.66683C10.6668 1.9335 10.0668 1.3335 9.3335 1.3335H6.66683C5.9335 1.3335 5.3335 1.9335 5.3335 2.66683V4.00016H2.66683C1.9335 4.00016 1.3335 4.60016 1.3335 5.3335V12.6668C1.3335 13.4002 1.9335 14.0002 2.66683 14.0002H13.3335C14.0668 14.0002 14.6668 13.4002 14.6668 12.6668V5.3335C14.6668 4.60016 14.0668 4.00016 13.3335 4.00016H10.6668ZM6.66683 2.66683H9.3335V4.00016H6.66683V2.66683ZM6.00016 11.3802V6.5535C6.00016 6.30016 6.26683 6.14016 6.4935 6.26016L10.5135 8.40016C10.7335 8.52016 10.7535 8.8335 10.5402 8.9735L6.52016 11.6535C6.30016 11.8002 6.00016 11.6468 6.00016 11.3802Z" fill="currentColor"/>
</svg>
