<svg width="28" height="24" viewBox="0 0 28 24" fill="none" xmlns="http://www.w3.org/2000/svg">
<path fill-rule="evenodd" clip-rule="evenodd" d="M22.4107 8.92319C21.7702 8.8234 21.0484 8.75985 20.2438 8.75985C20.1522 8.76427 20.062 8.76955 19.9727 8.7754C20.2425 8.30637 20.4874 7.88584 20.7164 7.42037C22.9785 7.07209 24.3159 7.32508 24.3159 7.32508C24.3159 7.32508 23.7525 7.72949 22.4107 8.92319ZM19.4621 8.81824C18.9258 8.87195 18.437 8.95155 17.9922 9.05048C18.1449 8.70826 18.27 8.34679 18.3743 7.97511C18.5886 7.89081 18.4846 7.52284 18.7213 7.44317C19.1216 7.32827 20.5844 6.95881 20.9455 6.8877C20.7226 7.3359 20.3406 9.06196 19.4621 8.81824ZM18.8705 5.19471C20.806 4.14018 22.0966 3.96094 22.0966 3.96094C22.0966 3.96094 21.5118 4.65093 20.3705 6.96863C20.0067 7.0329 19.6874 7.11399 19.2898 7.21748C19.0124 7.30414 18.7496 7.39487 18.499 7.48866C18.68 6.70573 18.7841 5.95575 18.8705 5.19471ZM22.9221 9.0139C24.6011 7.48619 25.2996 7.14533 25.2996 7.14533C25.2996 7.14533 23.6801 6.5104 20.9467 6.88728C20.9593 6.86131 20.972 6.83521 20.9845 6.80939C22.2963 4.10846 22.9742 3.39593 22.9742 3.39593C22.9742 3.39593 21.2935 3.36882 18.9296 4.60952C19.2585 1.67258 19.653 0.785156 19.653 0.785156C19.653 0.785156 17.5692 1.50711 15.342 4.64297C15.226 4.82428 15.1177 5.00209 15.0156 5.17691L15.0874 5.88702C15.2083 5.6607 15.0981 5.73117 15.2445 5.49102C17.1359 2.68111 18.9115 1.70917 18.9115 1.70917C18.9115 1.70917 18.7058 2.40829 18.4119 4.86037C18.0561 5.06493 17.7484 5.29738 17.3694 5.56306C16.3255 6.37288 15.8195 7.09825 15.283 7.8227L15.3435 7.87462C15.8188 7.16387 16.2806 6.54613 17.3239 5.69986C17.699 5.42255 18.5818 4.81857 18.9296 4.60952C18.8433 5.34217 18.6894 6.73364 18.4995 7.48911C17.2075 8.02861 16.0741 8.77795 15.4396 9.37173C15.9866 8.80677 17.2378 8.30871 18.4995 7.75059C18.3901 8.09801 18.1547 8.7353 17.9933 9.05006C17.0449 9.31125 16.0568 9.72636 15.5114 10.0823L15.556 10.4027C15.9997 10.0855 16.7991 9.59555 17.6221 9.33386C17.5355 9.89818 17.094 10.7852 15.6074 11.0324L15.6461 11.415C16.7639 11.0668 17.2595 10.2911 17.7597 9.39534C18.1859 9.28921 19.4441 8.83865 19.9723 8.77567C19.1605 10.3178 16.4923 12.6251 15.6659 11.611L15.7039 11.9874C17.6816 12.0312 18.738 10.7725 19.7143 9.2069C19.7703 9.20234 19.8264 9.19784 19.8834 9.19385C20.2435 8.76012 22.3088 8.93052 22.9221 9.0139C22.8134 9.11411 22.0746 9.99283 21.9574 10.1035C20.3396 11.6306 17.094 13.9372 15.7314 12.3805L15.7733 12.6733C18.4075 13.4999 20.4597 11.3466 22.2412 9.6484C22.3357 9.55839 22.4268 9.53321 22.5164 9.44933C24.1853 9.75574 25.049 10.1864 25.049 10.1864C25.049 10.1864 24.2038 10.4274 21.9215 11.6798C20.0517 12.7058 17.8807 13.9872 15.7902 12.8418L15.8366 13.3004C18.0935 14.3872 20.4493 12.986 22.4862 11.8553C25.1128 10.3973 26.0773 10.2032 26.0773 10.2032C26.0773 10.2032 25.0085 9.42786 22.9221 9.0139Z" fill="#264092"/>
<path fill-rule="evenodd" clip-rule="evenodd" d="M2.68652 7.32508C2.68652 7.32508 4.02398 7.07209 6.28609 7.42037C6.51508 7.88577 6.75999 8.3063 7.0298 8.7754C6.94051 8.76955 6.85028 8.7642 6.75856 8.75978C5.9541 8.75978 5.23223 8.8234 4.59174 8.92318C3.24993 7.72949 2.68652 7.32508 2.68652 7.32508ZM6.05566 6.8877C6.41678 6.95881 7.87965 7.3282 8.27988 7.44317C8.51664 7.52284 8.41257 7.89074 8.62693 7.97511C8.73121 8.34679 8.85627 8.70819 9.00903 9.0504C8.56418 8.95155 8.07544 8.87195 7.53909 8.81824C6.66061 9.06196 6.27858 7.3359 6.05566 6.8877ZM8.5048 7.48866C8.25425 7.39487 7.99143 7.30407 7.71405 7.21741C7.31646 7.11399 6.9971 7.0329 6.63335 6.96856C5.49197 4.65093 4.90723 3.96094 4.90723 3.96094C4.90723 3.96094 6.19778 4.14011 8.13333 5.19471C8.2197 5.95568 8.32385 6.70566 8.5048 7.48866ZM0.925781 10.2032C0.925781 10.2032 1.89027 10.3973 4.51678 11.8553C6.55376 12.986 8.9096 14.3872 11.1664 13.3004L11.2128 12.8418C9.12239 13.9873 6.95135 12.7058 5.08154 11.6798C2.79923 10.4275 1.95409 10.1865 1.95409 10.1865C1.95409 10.1865 2.81779 9.75574 4.48666 9.44933C4.57624 9.53328 4.6674 9.55839 4.76183 9.64847C6.54334 11.3466 8.5956 13.5 11.2298 12.6734L11.3325 12.3199C9.96981 13.8765 6.66348 11.6307 5.04564 10.1035C4.92843 9.99283 4.18972 9.11418 4.08101 9.01397C4.69424 8.93052 6.75948 8.76012 7.11967 9.19385C7.1767 9.19784 7.23273 9.20241 7.28877 9.20697C8.26504 10.7726 9.32147 12.0313 11.2991 11.9875L11.3372 11.611C10.5107 12.6251 7.94682 10.355 7.03073 8.77574C7.55894 8.83865 8.80524 9.33935 9.23146 9.44555C9.73169 10.3412 10.2392 11.0669 11.357 11.4151L11.3957 11.0325C9.90907 10.7852 9.46758 9.89825 9.38093 9.33393C10.2039 9.59555 11.0033 10.0856 11.447 10.4027L11.4917 10.0824C10.9463 9.72636 9.95818 9.31125 9.00975 9.05006C8.84836 8.73537 8.61302 8.09801 8.50359 7.75066C9.76524 8.30878 11.0165 8.80677 11.5635 9.37173C10.929 8.77802 9.79557 8.02869 8.50359 7.48919C8.31365 6.73371 8.15982 5.34224 8.07345 4.60959C8.42129 4.81864 9.30405 5.42262 9.67915 5.69986C10.7224 6.5462 11.1843 7.16387 11.6596 7.8747L11.7201 7.8227C11.1836 7.09833 10.6776 6.37288 9.63368 5.56313C9.25473 5.29738 8.94693 5.065 8.59117 4.86044C8.29723 2.40837 8.09158 1.70924 8.09158 1.70924C8.09158 1.70924 9.86717 2.68111 11.7585 5.49109C11.9049 5.73117 11.7948 5.66077 11.9157 5.88709L11.9875 5.17698C11.8854 5.00209 11.7771 4.82428 11.661 4.64297C9.43389 1.50718 7.35008 0.785156 7.35008 0.785156C7.35008 0.785156 7.74453 1.67258 8.07345 4.60959C5.70962 3.36882 4.02883 3.396 4.02883 3.396C4.02883 3.396 4.70673 4.10846 6.01855 6.80946C6.03112 6.83528 6.04375 6.86131 6.05639 6.88735C3.32295 6.51047 1.70347 7.1454 1.70347 7.1454C1.70347 7.1454 2.40193 7.48619 4.08101 9.01397C1.99456 9.42793 0.925781 10.2032 0.925781 10.2032Z" fill="#264092"/>
<path fill-rule="evenodd" clip-rule="evenodd" d="M11.8281 10.2446C11.8281 11.1973 12.601 11.9697 13.5545 11.9697C14.508 11.9697 15.2809 11.1973 15.2809 10.2446C15.2809 9.29191 14.508 8.51953 13.5545 8.51953C12.601 8.51953 11.8281 9.29191 11.8281 10.2446Z" fill="url(#paint0_radial_2232_5539)"/>
<path fill-rule="evenodd" clip-rule="evenodd" d="M15.6347 15.8186L13.5302 10.3184L11.4258 15.8186L12.927 17.1506L12.9535 14.7989L13.4437 14.3885L14.0929 14.6628L14.1062 15.5933L14.0134 17.3143L14.797 16.5019L15.6347 15.8186Z" fill="#264092"/>
<path fill-rule="evenodd" clip-rule="evenodd" d="M13.538 18.0316C13.538 18.0316 13.3129 19.0005 14.2591 18.9591C14.9954 18.9269 17.0285 18.569 17.8395 18.4276C18.6504 18.2864 20.2721 18.8712 19.2777 20.7631C18.7422 21.6499 16.8449 21.7569 14.8712 20.3809C12.8974 19.005 11.8463 18.2594 11.092 17.9195C10.0901 17.468 7.63609 17.0216 7.14442 19.4942C6.89131 21.2434 8.7816 21.5887 8.7816 21.5887C8.7816 21.5887 7.47084 21.1713 7.45043 19.8764C7.43644 18.9871 8.31491 17.5718 10.0901 18.1794C11.8794 18.7918 11.8723 19.0202 14.4274 20.916C16.0187 21.9862 18.6045 22.8576 19.8285 21.0689C20.5629 19.8458 20.1345 18.1641 18.4974 17.9653C17.2427 17.8124 17.3345 18.317 14.5346 18.7298C13.5859 18.8642 13.5433 18.509 13.538 18.0316Z" fill="#1B2133"/>
<mask id="mask0_2232_5539" style="mask-type:luminance" maskUnits="userSpaceOnUse" x="8" y="20" width="5" height="5">
<path fill-rule="evenodd" clip-rule="evenodd" d="M8.74219 20.9395H12.6153V24.0011H8.74219V20.9395Z" fill="white"/>
</mask>
<g mask="url(#mask0_2232_5539)">
<path fill-rule="evenodd" clip-rule="evenodd" d="M11.9902 21.8047L10.3405 21.0399C9.8 20.7892 9.15851 21.0239 8.90775 21.564L8.88419 21.6148L9.55488 21.914C9.55488 21.914 10.066 21.7229 10.2864 22.2321C10.7152 22.4202 10.9193 22.5258 10.9193 22.5258L10.8884 22.5927L10.2573 22.3062C10.2573 22.3062 9.75639 22.4847 9.52412 21.9986C9.05022 21.7782 8.90254 21.7012 8.85635 21.6748L8.84265 21.7043C8.59189 22.2444 8.82673 22.8853 9.36722 23.1359L11.017 23.9008C11.5574 24.1514 12.1989 23.9167 12.4496 23.3766L12.5148 23.2363C12.7656 22.6962 12.5307 22.0553 11.9902 21.8047Z" fill="#1B2133"/>
</g>
<path fill-rule="evenodd" clip-rule="evenodd" d="M13.5457 14.2867L13.5383 14.2868C12.7995 14.2868 12.8665 15.1501 12.8665 15.1501V16.5727C12.594 16.0392 11.2067 15.2009 11.2067 15.2009L12.2471 4.9082L11.7419 4.92104L10.6836 15.6465C10.6836 15.6465 12.954 16.8652 13.3829 18.4635V15.3474V15.3475C13.2603 15.2909 13.1796 15.1672 13.1796 15.0233C13.1796 14.8261 13.3397 14.6661 13.5372 14.6661C13.7346 14.6661 13.8947 14.8261 13.8947 15.0233C13.8947 15.168 13.8096 15.2922 13.6859 15.3484V18.4635C14.2268 16.6855 16.3336 15.6471 16.3336 15.6471C16.3336 15.6471 15.5877 7.76975 15.2833 4.9082H14.8452L14.9669 6.11217L15.8857 15.2009C15.8857 15.2009 14.4983 16.0392 14.2258 16.5727V15.1501C14.2258 15.1501 14.287 14.2868 13.5541 14.2868L13.5457 14.2867Z" fill="#EF951E"/>
<mask id="mask1_2232_5539" style="mask-type:luminance" maskUnits="userSpaceOnUse" x="0" y="0" width="13" height="14">
<path fill-rule="evenodd" clip-rule="evenodd" d="M0 0H12.2478V13.9665H0V0Z" fill="white"/>
</mask>
<g mask="url(#mask1_2232_5539)">
<path fill-rule="evenodd" clip-rule="evenodd" d="M1.89844 7.17967C1.89844 7.17967 3.33989 6.71064 5.77803 7.08602C6.02479 7.58772 6.28876 8.1064 6.57956 8.61195C6.48334 8.6056 6.38612 8.59989 6.28726 8.59511C5.4202 8.59511 4.64223 8.66366 3.95184 8.77122C2.50567 7.48466 1.89844 7.17967 1.89844 7.17967ZM4.22461 3.48926C4.22461 3.48926 5.68098 3.5516 7.76707 4.68816C7.86015 5.50839 7.97251 6.38212 8.16752 7.22603C7.89749 7.1249 7.61418 7.02711 7.31524 6.93367C6.88667 6.82219 6.47702 6.73482 6.08492 6.66549C4.85483 4.16749 4.22461 3.48926 4.22461 3.48926ZM8.30231 7.74888C8.4148 8.14944 8.5495 8.53902 8.71417 8.90791C8.23471 8.80128 7.70799 8.71547 7.12996 8.65763C6.84172 8.17055 6.58311 7.66814 6.34277 7.18506C6.73194 7.26173 7.14273 7.35945 7.57408 7.48334C7.82927 7.56921 8.07132 7.65801 8.30231 7.74888ZM4.47905 11.7422C2.01921 10.3924 1.10832 10.1981 1.10832 10.1981C1.10832 10.1981 2.03919 9.60302 3.83784 9.27272C3.93449 9.36323 4.0327 9.45574 4.13449 9.55274C6.07211 11.3998 8.57364 13.8128 11.4453 12.8531L11.4907 12.4042C8.82761 13.3777 6.53202 11.1852 4.77121 9.52307C4.64486 9.40374 4.52316 9.29034 4.40595 9.18235C5.06686 9.09241 5.82335 9.04148 6.67571 9.06281C6.73724 9.06716 6.79762 9.07201 6.85794 9.07693C7.92265 10.7843 9.34326 12.2211 11.5176 12.1381L11.5586 11.7317C9.64577 11.7971 8.3767 10.5929 7.42406 9.13356C7.99339 9.2014 8.50525 9.29647 8.96466 9.41095C9.51479 10.396 10.3311 11.1794 11.5774 11.5459L11.619 11.134C10.7046 10.8306 10.0527 10.2783 9.58131 9.58505C10.5125 9.88112 11.1881 10.2555 11.6717 10.6129L11.7202 10.1325C11.1246 9.73291 10.3247 9.33656 9.2611 9.0437C9.08722 8.70448 8.94524 8.34264 8.82739 7.96819C10.2404 8.59328 11.1532 9.29847 11.7411 9.92555L11.7957 9.38463C11.1091 8.72559 10.114 8.02696 8.67457 7.42591C8.46985 6.61166 8.35714 5.76226 8.26406 4.97262C8.63902 5.19801 9.03004 5.4562 9.43427 5.75512C10.6076 6.70688 11.3835 7.604 11.8958 8.3945L11.9618 7.74131C11.3795 6.93555 10.5543 6.05647 9.3853 5.14965C8.97686 4.86328 8.57963 4.61279 8.19625 4.39232C7.87946 1.74945 7.52684 0.930503 7.52684 0.930503C7.52684 0.930503 9.63699 1.78169 11.6755 4.81021C11.8591 5.11149 12.023 5.40249 12.1697 5.68359L12.2479 4.90971C12.1196 4.68575 11.982 4.4573 11.8323 4.22335C9.43191 0.843629 6.92404 0 6.92404 0C6.92404 0 7.34925 0.956465 7.70365 4.12193C5.15595 2.78466 3.34446 2.81398 3.34446 2.81398C3.34446 2.81398 4.0751 3.58186 5.48893 6.49291C5.5025 6.52072 5.51613 6.54883 5.52969 6.57686C2.58361 6.17066 0.838148 6.85502 0.838148 6.85502C0.838148 6.85502 1.591 7.22235 3.40063 8.86895C1.15194 9.31509 0 10.1507 0 10.1507C0 10.1507 1.03958 10.3599 3.87039 11.9313C6.08967 13.1632 8.92776 14.7602 11.3784 13.5154L11.4289 13.0153C9.15774 14.329 6.5181 12.8611 4.47905 11.7422Z" fill="#EF951E"/>
</g>
<mask id="mask2_2232_5539" style="mask-type:luminance" maskUnits="userSpaceOnUse" x="14" y="0" width="14" height="14">
<path fill-rule="evenodd" clip-rule="evenodd" d="M14.8359 0H27.0201V13.9662H14.8359V0Z" fill="white"/>
</mask>
<g mask="url(#mask2_2232_5539)">
<path fill-rule="evenodd" clip-rule="evenodd" d="M23.0682 8.77116C22.3778 8.66367 21.5998 8.59506 20.7327 8.59506C20.6339 8.59984 20.5367 8.60561 20.4404 8.61189C20.7312 8.10634 20.9952 7.58767 21.242 7.08604C23.6801 6.71066 25.1216 7.17962 25.1216 7.17962C25.1216 7.17962 24.5143 7.4846 23.0682 8.77116ZM19.8919 8.65763C19.3139 8.71555 18.7871 8.80128 18.3076 8.90791C18.4723 8.53902 18.6071 8.14951 18.7195 7.74888C18.9505 7.65801 19.1925 7.56921 19.4477 7.48341C19.8791 7.35952 20.2898 7.26173 20.679 7.18506C20.4387 7.66821 20.1801 8.17055 19.8919 8.65763ZM19.253 4.68808C21.3391 3.55152 22.7955 3.48926 22.7955 3.48926C22.7955 3.48926 22.1653 4.16748 20.9351 6.66542C20.543 6.73475 20.1334 6.82212 19.7049 6.9336C19.4059 7.02704 19.1226 7.12482 18.8525 7.22596C19.0476 6.38205 19.1599 5.50832 19.253 4.68808ZM23.6194 8.86895C25.4291 7.22235 26.1819 6.85502 26.1819 6.85502C26.1819 6.85502 24.4365 6.17066 21.4904 6.57686C21.5039 6.54883 21.5176 6.5208 21.5311 6.49298C22.945 3.58186 23.6757 2.81398 23.6757 2.81398C23.6757 2.81398 21.8641 2.78466 19.3164 4.12193C19.6709 0.956465 20.096 0 20.096 0C20.096 0 17.5881 0.843629 15.1878 4.22335C15.0627 4.41878 14.946 4.61043 14.8359 4.79887L14.9133 5.56426C15.0436 5.32033 15.1868 5.06905 15.3446 4.81029C17.3831 1.78176 19.4933 0.930503 19.4933 0.930503C19.4933 0.930503 19.1406 1.74945 18.8239 4.39232C18.4404 4.61279 18.0432 4.86328 17.6348 5.14965C16.5097 6.02245 15.7024 6.86972 15.1242 7.65044L15.1893 8.29543C15.7016 7.52933 16.4613 6.66723 17.5858 5.75512C17.99 5.45627 18.3811 5.19801 18.756 4.97262C18.6629 5.76233 18.5503 6.61173 18.3455 7.42598C16.9531 8.00742 15.9767 8.68008 15.2928 9.32001L15.3469 9.85437C15.9365 9.2454 16.8329 8.56974 18.1927 7.96826C18.0748 8.34264 17.9328 8.70448 17.759 9.0437C16.7368 9.32521 15.9581 9.70224 15.3703 10.086L15.4184 10.5621C15.8966 10.2203 16.5517 9.86714 17.4388 9.58512C16.9798 10.2599 16.3504 10.8016 15.4738 11.1099L15.5154 11.5223C16.7202 11.147 17.5163 10.3764 18.0555 9.41095C18.5148 9.29647 19.0267 9.2014 19.5961 9.13356C18.6559 10.5737 17.4076 11.7652 15.5368 11.7335L15.5778 12.1392C17.7094 12.1864 19.1099 10.7644 20.1621 9.07693C20.2224 9.07201 20.2828 9.06716 20.3444 9.06288C21.1967 9.04148 21.9532 9.09248 22.6141 9.18235C22.4969 9.29034 22.3753 9.40374 22.2489 9.52307C20.5053 11.169 18.2373 13.3351 15.6073 12.4321L15.6525 12.8785C18.4917 13.7694 20.9655 11.3831 22.8856 9.55281C22.9874 9.45574 23.0857 9.36323 23.1822 9.27279C24.9809 9.60302 25.9118 10.1981 25.9118 10.1981C25.9118 10.1981 25.0009 10.3924 22.541 11.7422C20.5258 12.848 17.9239 14.2946 15.6709 13.0601L15.7208 13.5543C18.1533 14.7256 20.9542 13.15 23.1497 11.9313C25.9806 10.3599 27.0201 10.1508 27.0201 10.1508C27.0201 10.1508 25.8681 9.31509 23.6194 8.86895Z" fill="#EF951E"/>
</g>
<defs>
<radialGradient id="paint0_radial_2232_5539" cx="0" cy="0" r="1" gradientUnits="userSpaceOnUse" gradientTransform="translate(13.5545 10.2446) rotate(90) scale(1.7251 1.7264)">
<stop stop-color="#E94D13"/>
<stop offset="0.219622" stop-color="#EB6E07"/>
<stop offset="0.407645" stop-color="#F4970B"/>
<stop offset="0.591614" stop-color="#FCBF06"/>
<stop offset="0.804311" stop-color="#F7F19D"/>
<stop offset="1" stop-color="white"/>
</radialGradient>
</defs>
</svg>
