<svg width="62" height="62" viewBox="0 0 62 62" fill="none" xmlns="http://www.w3.org/2000/svg">
<path d="M38.6669 17.6479C35.3244 17.6479 30.9336 17.0267 30.9336 13.1201V57.339C30.9336 61.2456 35.3244 61.8668 38.6669 61.8668C42.0094 61.8668 46.4003 61.2456 46.4003 57.339V13.1201C46.4003 17.0267 42.0094 17.6479 38.6669 17.6479Z" fill="#96ADD4"/>
<path d="M38.6669 54.4047C35.3244 54.4047 30.9336 53.7835 30.9336 49.877V52.0679C30.9336 55.9744 35.3244 56.5957 38.6669 56.5957C42.0094 56.5957 46.4003 55.9744 46.4003 52.0679V49.877C46.4003 53.7839 42.0094 54.4047 38.6669 54.4047Z" fill="#1B4CA1"/>
<path d="M38.6669 23.8813C35.3244 23.8813 30.9336 23.2601 30.9336 19.3535V21.5445C30.9336 25.451 35.3244 26.0722 38.6669 26.0722C42.0094 26.0722 46.4003 25.451 46.4003 21.5445V19.3535C46.4003 23.2605 42.0094 23.8813 38.6669 23.8813Z" fill="#1B4CA1"/>
<path d="M43.3824 11.3869C43.3824 15.1659 40.112 14.1321 36.7055 14.4115C35.1922 14.5357 33.9514 13.1422 33.9514 11.369V0.790613C33.9514 0.353707 33.6485 0 33.2747 0H31.6099C31.2365 0 30.9336 0.354133 30.9336 0.790613V13.12C30.9336 17.0266 35.3244 17.6478 38.6669 17.6478C42.0094 17.6478 46.4003 17.0266 46.4003 13.12V0.790613C46.4003 0.353707 46.0973 0 45.7236 0H44.0587C43.685 0 43.382 0.354133 43.382 0.790613V11.3869H43.3824Z" fill="#1B4CA1"/>
<path d="M33.9512 11.3686C33.9512 13.1418 35.1919 14.5353 36.7053 14.4111C40.1118 14.1317 43.3822 15.1655 43.3822 11.3865C43.3822 -1.2117 43.3822 14.0706 43.3822 0.970703C40.4199 2.73497 36.9139 2.73497 33.9516 0.970703C33.9512 14.0647 33.9512 -1.21852 33.9512 11.3686Z" fill="url(#paint0_linear_7373_57640)"/>
<path d="M7.73333 17.6479C4.39083 17.6479 0 17.0267 0 13.1201V57.339C0 61.2456 4.39083 61.8668 7.73333 61.8668C11.0758 61.8668 15.4667 61.2456 15.4667 57.339V13.1201C15.4667 17.0267 11.0758 17.6479 7.73333 17.6479Z" fill="#96ADD4"/>
<path d="M7.73333 54.4047C4.39083 54.4047 0 53.7835 0 49.877V52.0679C0 55.9744 4.39083 56.5957 7.73333 56.5957C11.0758 56.5957 15.4667 55.9744 15.4667 52.0679V49.877C15.4667 53.7839 11.0758 54.4047 7.73333 54.4047Z" fill="#1B4CA1"/>
<path d="M7.73333 23.8819C4.39083 23.8819 0 23.2611 0 19.3545V21.5454C0 25.452 4.39083 26.0732 7.73333 26.0732C11.0758 26.0732 15.4667 25.452 15.4667 21.5454V19.3545C15.4667 23.2611 11.0758 23.8819 7.73333 23.8819Z" fill="#1B4CA1"/>
<path d="M12.4489 11.3869C12.4489 15.1659 9.17845 14.1321 5.77195 14.4115C4.25856 14.5357 3.01781 13.1422 3.01781 11.369V0.790613C3.01781 0.354133 2.71488 0 2.34155 0H0.676693C0.302933 0 0 0.354133 0 0.790613V13.12C0 17.0266 4.39083 17.6478 7.73333 17.6478C11.0758 17.6478 15.4667 17.0266 15.4667 13.12V0.790613C15.4667 0.353707 15.1637 0 14.79 0H13.1251C12.7514 0 12.4484 0.354133 12.4484 0.790613V11.3869H12.4489Z" fill="#1B4CA1"/>
<path d="M3.01758 11.3686C3.01758 13.1418 4.25832 14.5353 5.77171 14.4111C9.17822 14.1317 12.4486 15.1655 12.4486 11.3865C12.4486 -1.2117 12.4486 14.0706 12.4486 0.970703C9.48627 2.73497 5.98035 2.73497 3.018 0.970703C3.01758 14.0647 3.01758 -1.21852 3.01758 11.3686Z" fill="url(#paint1_linear_7373_57640)"/>
<path d="M54.1327 17.6479C50.7902 17.6479 46.3994 17.0267 46.3994 13.1201V57.339C46.3994 61.2456 50.7902 61.8668 54.1327 61.8668C57.4753 61.8668 61.8661 61.2456 61.8661 57.339V13.1201C61.8661 17.0267 57.4753 17.6479 54.1327 17.6479Z" fill="#1B4CA1"/>
<path d="M54.1337 54.4047C50.7912 54.4047 46.4004 53.7835 46.4004 49.877V52.0679C46.4004 55.9744 50.7912 56.5957 54.1337 56.5957C57.4762 56.5957 61.8671 55.9744 61.8671 52.0679V49.877C61.8671 53.7839 57.4762 54.4047 54.1337 54.4047Z" fill="#96ADD4"/>
<path d="M54.1337 23.8813C50.7912 23.8813 46.4004 23.2601 46.4004 19.3535V21.5445C46.4004 25.451 50.7912 26.0722 54.1337 26.0722C57.4762 26.0722 61.8671 25.451 61.8671 21.5445V19.3535C61.8671 23.2605 57.4762 23.8813 54.1337 23.8813Z" fill="#96ADD4"/>
<path d="M58.8487 11.3869C58.8487 15.1659 55.5783 14.1321 52.1718 14.4115C50.6584 14.5357 49.4177 13.1422 49.4177 11.369V0.790613C49.4177 0.353707 49.1147 0 48.741 0H47.0761C46.7023 0 46.3994 0.354133 46.3994 0.790613V13.12C46.3994 17.0266 50.7902 17.6478 54.1327 17.6478C57.4753 17.6478 61.8665 17.0266 61.8665 13.12V0.790613C61.8665 0.353707 61.5636 0 61.1898 0H59.525C59.1512 0 58.8483 0.354133 58.8483 0.790613V11.3869H58.8487Z" fill="#96ADD4"/>
<path d="M49.418 11.3686C49.418 13.1418 50.6587 14.5353 52.1721 14.4111C55.5786 14.1317 58.849 15.1655 58.849 11.3865C58.849 -1.2117 58.849 14.0706 58.849 0.970703C55.8867 2.73497 52.3807 2.73497 49.4184 0.970703C49.418 14.0647 49.418 -1.21852 49.418 11.3686Z" fill="url(#paint2_linear_7373_57640)"/>
<path d="M23.2011 17.6479C19.8586 17.6479 15.4678 17.0267 15.4678 13.1201V57.339C15.4678 61.2456 19.8586 61.8668 23.2011 61.8668C26.5436 61.8668 30.9344 61.2456 30.9344 57.339V13.1201C30.9344 17.0267 26.5436 17.6479 23.2011 17.6479Z" fill="#1B4CA1"/>
<path d="M23.2011 54.4047C19.8586 54.4047 15.4678 53.7835 15.4678 49.877V52.0679C15.4678 55.9744 19.8586 56.5957 23.2011 56.5957C26.5436 56.5957 30.9344 55.9744 30.9344 52.0679V49.877C30.9344 53.7839 26.5436 54.4047 23.2011 54.4047Z" fill="#96ADD4"/>
<path d="M23.2011 23.8813C19.8586 23.8813 15.4678 23.2601 15.4678 19.3535V21.5445C15.4678 25.451 19.8586 26.0722 23.2011 26.0722C26.5436 26.0722 30.9344 25.451 30.9344 21.5445V19.3535C30.9344 23.2605 26.5436 23.8813 23.2011 23.8813Z" fill="#96ADD4"/>
<path d="M27.9161 11.3869C27.9161 15.1659 24.6457 14.1321 21.2392 14.4115C19.7258 14.5357 18.485 13.1422 18.485 11.369V0.790613C18.485 0.353707 18.1821 0 17.8083 0H16.1435C15.7697 0 15.4668 0.354133 15.4668 0.790613V13.12C15.4668 17.0266 19.8576 17.6478 23.2001 17.6478C26.5426 17.6478 30.9339 17.0266 30.9339 13.12V0.790613C30.9339 0.354133 30.631 0 30.2572 0H28.5923C28.2186 0 27.9156 0.354133 27.9156 0.790613V11.3869H27.9161Z" fill="#96ADD4"/>
<path d="M18.4844 11.3686C18.4844 13.1418 19.7251 14.5353 21.2385 14.4111C24.645 14.1317 27.9154 15.1655 27.9154 11.3865C27.9154 -1.2117 27.9154 14.0706 27.9154 0.970703C24.9531 2.73497 21.4471 2.73497 18.4848 0.970703C18.4844 14.0647 18.4844 -1.21852 18.4844 11.3686Z" fill="url(#paint3_linear_7373_57640)"/>
<defs>
<linearGradient id="paint0_linear_7373_57640" x1="38.6669" y1="14.4193" x2="38.6669" y2="0.971211" gradientUnits="userSpaceOnUse">
<stop stop-color="#F8A57F"/>
<stop offset="1" stop-color="#FEE2C5"/>
</linearGradient>
<linearGradient id="paint1_linear_7373_57640" x1="7.73332" y1="14.4193" x2="7.73332" y2="0.971211" gradientUnits="userSpaceOnUse">
<stop stop-color="#F8A57F"/>
<stop offset="1" stop-color="#FEE2C5"/>
</linearGradient>
<linearGradient id="paint2_linear_7373_57640" x1="54.1337" y1="14.4193" x2="54.1337" y2="0.971211" gradientUnits="userSpaceOnUse">
<stop stop-color="#F8A57F"/>
<stop offset="1" stop-color="#FEE2C5"/>
</linearGradient>
<linearGradient id="paint3_linear_7373_57640" x1="23.2001" y1="14.4193" x2="23.2001" y2="0.971211" gradientUnits="userSpaceOnUse">
<stop stop-color="#F8A57F"/>
<stop offset="1" stop-color="#FEE2C5"/>
</linearGradient>
</defs>
</svg>
